<svg width="415" height="52" viewBox="0 0 415 52" fill="none" xmlns="http://www.w3.org/2000/svg">
<path d="M53.8432 0.263184H0V50.8037H53.8432V0.263184Z" fill="#1E2958"/>
<path d="M35.8832 11.0653V12.1119L36.3618 13.0165L45.8546 25.223L49.3099 27.3687L48.4316 28.0629L45.3024 27.0952L44.5398 33.3799L47.2798 35.1733L44.7975 37.7871L45.4181 41.4895L43.225 42.8148L43.7983 45.4812L41.8629 42.3731L42.3257 40.0328L41.5999 38.9336L39.3911 37.7503L38.0185 37.7135L40.2536 39.4227L40.3062 41.4948L38.2183 41.2634L34.7788 39.6699L36.3145 36.1305L36.1357 34.7263L28.1365 28.2943L28.1628 28.41L22.7143 26.1381L21.7992 21.8624L20.7053 21.5784L15.5408 17.7602L14.7572 17.8023L20.1794 22.2568L17.2869 26.7271L13.8632 23.2455L8.43571 21.0945L7.89402 16.1299L8.16224 14.8046L10.3816 13.332L8.33579 10.4763L7.27344 10.0713L7.28921 9.3298L9.37184 9.2404L10.0608 6.49512L17.5078 8.85122L23.6873 9.03003L30.9291 11.3283L35.3468 10.0188L35.8832 11.0653Z" fill="#CFAC66"/>
<path d="M278.741 0H277.873V51.3136H278.741V0Z" fill="#1E2958"/>
<path d="M300.745 14.4521C300.314 14.4521 299.919 14.5153 299.562 14.652C299.204 14.7835 298.894 14.9728 298.641 15.2147C298.384 15.4566 298.189 15.7564 298.058 16.1193C297.926 16.4822 297.852 16.8714 297.852 17.3026C297.852 17.7391 297.926 18.1441 298.079 18.5122C298.231 18.8804 298.441 19.1854 298.72 19.4378C298.994 19.6903 299.32 19.8796 299.693 20.0111C300.067 20.1426 300.477 20.2109 300.913 20.2109C301.592 20.2109 302.165 20.0216 302.644 19.6482C303.117 19.2748 303.417 18.7647 303.548 18.1178H300.787V16.9082H304.984C304.989 17.2763 304.968 17.676 304.905 18.1125C304.847 18.549 304.721 18.9698 304.532 19.3747C304.342 19.7797 304.106 20.132 303.822 20.4213C303.532 20.7105 303.206 20.9472 302.833 21.126C302.459 21.3048 302.091 21.4258 301.728 21.4889C301.36 21.552 301.029 21.5836 300.734 21.5836C300.114 21.5836 299.535 21.4784 298.999 21.268C298.462 21.0576 298 20.7579 297.611 20.3687C297.221 19.9795 296.916 19.5272 296.706 19.0013C296.496 18.4754 296.39 17.9074 296.39 17.3026C296.39 16.6557 296.501 16.0667 296.716 15.5408C296.937 15.0096 297.242 14.5678 297.637 14.2155C298.031 13.8631 298.499 13.5896 299.036 13.4003C299.572 13.211 300.156 13.1216 300.777 13.1216C301.208 13.1216 301.634 13.1689 302.049 13.2583C302.465 13.3477 302.859 13.495 303.222 13.7001C303.585 13.9052 303.9 14.1787 304.163 14.5258C304.426 14.8729 304.616 15.2831 304.726 15.7617L303.517 16.2034C303.396 15.8195 303.201 15.4987 302.938 15.241C302.67 14.9833 302.349 14.7887 301.965 14.6573C301.581 14.5205 301.171 14.4521 300.745 14.4521Z" fill="#1E2958"/>
<path d="M311.647 21.5939C311.026 21.5939 310.453 21.494 309.927 21.2889C309.401 21.0838 308.949 20.7945 308.576 20.4211C308.202 20.0477 307.913 19.5955 307.708 19.0748C307.503 18.5541 307.403 17.9862 307.403 17.3708C307.403 16.7345 307.503 16.1455 307.703 15.609C307.902 15.0726 308.186 14.615 308.56 14.2416C308.933 13.8682 309.375 13.579 309.901 13.3739C310.422 13.1688 310.995 13.0688 311.615 13.0688C312.236 13.0688 312.809 13.1688 313.34 13.3739C313.866 13.579 314.319 13.8682 314.697 14.2416C315.076 14.615 315.365 15.0673 315.57 15.588C315.775 16.1086 315.875 16.6766 315.875 17.2919C315.875 17.9283 315.775 18.5173 315.576 19.0538C315.376 19.5902 315.092 20.0477 314.713 20.4211C314.34 20.7945 313.887 21.0838 313.367 21.2889C312.841 21.494 312.268 21.5939 311.647 21.5939ZM314.455 17.4234C314.455 16.5083 314.198 15.7668 313.677 15.2093C313.156 14.6519 312.467 14.3731 311.61 14.3731C311.195 14.3731 310.811 14.4362 310.464 14.573C310.111 14.7044 309.817 14.8938 309.57 15.1462C309.328 15.3987 309.138 15.7037 309.007 16.0613C308.875 16.4189 308.807 16.8186 308.807 17.2551C308.807 17.7022 308.875 18.1124 309.007 18.491C309.138 18.8697 309.328 19.1958 309.575 19.464C309.822 19.7375 310.122 19.9426 310.474 20.0846C310.827 20.2266 311.21 20.3002 311.636 20.3002C312.499 20.3002 313.183 20.0425 313.693 19.5218C314.203 19.0064 314.455 18.307 314.455 17.4234Z" fill="#1E2958"/>
<path d="M318.973 13.364L322.813 13.3535C323.833 13.3535 324.59 13.4377 325.079 13.6112C325.568 13.7848 325.91 14.0214 326.11 14.337C326.305 14.6473 326.405 15.0207 326.405 15.4519C326.405 16.0094 326.142 16.5248 325.616 16.9929C325.921 17.198 326.152 17.4504 326.32 17.7396C326.489 18.0289 326.573 18.3445 326.573 18.681C326.573 19.1596 326.483 19.5698 326.305 19.9169C326.126 20.264 325.884 20.5375 325.584 20.7426C325.284 20.9477 324.948 21.095 324.569 21.1844C324.19 21.2738 323.796 21.3211 323.381 21.3211H318.979V13.364H318.973ZM320.325 16.5248H323.743C324.001 16.5248 324.222 16.4617 324.406 16.3407C324.595 16.2198 324.716 16.083 324.785 15.9358C324.848 15.7885 324.879 15.6623 324.879 15.5571C324.879 15.3099 324.764 15.0996 324.538 14.9313C324.311 14.7577 323.985 14.6736 323.565 14.6736L320.325 14.7104V16.5248ZM320.325 17.8291V20.0432L323.449 20.0695C323.896 20.0695 324.28 19.959 324.595 19.7329C324.916 19.512 325.074 19.1964 325.074 18.802C325.074 18.4759 324.927 18.234 324.627 18.071C324.327 17.9132 323.949 17.8343 323.496 17.8343H320.325V17.8291Z" fill="#1E2958"/>
<path d="M331.148 21.3209H329.797V13.3638H331.148V21.3209Z" fill="#1E2958"/>
<path d="M342.292 20.0061V21.3209H334.851V13.3638H342.061V14.7049H336.186V16.5456H341.067V17.9077H336.186V20.0008H342.292V20.0061Z" fill="#1E2958"/>
<path d="M351.953 21.547C351.643 21.547 351.38 21.4576 351.165 21.2735C350.949 21.0895 350.77 20.8528 350.618 20.5583C350.47 20.2638 350.297 19.8378 350.102 19.2856C349.908 18.7334 349.76 18.3389 349.666 18.1075H346.531V21.3261H345.18V13.3638H350.144C350.612 13.3638 351.038 13.4216 351.417 13.5321C351.796 13.6425 352.117 13.8003 352.374 14.0054C352.632 14.2105 352.832 14.4524 352.968 14.7417C353.105 15.0309 353.174 15.3465 353.174 15.6883C353.174 16.2773 352.984 16.777 352.606 17.1767C352.227 17.5816 351.743 17.8235 351.154 17.9129C351.328 18.544 351.475 19.0016 351.585 19.2908C351.696 19.5801 351.827 19.7957 351.969 19.9482C352.111 20.1007 352.29 20.1744 352.495 20.1744C352.7 20.1744 352.926 20.1165 353.163 20.0061V21.3209C352.706 21.4734 352.301 21.547 351.953 21.547ZM346.531 16.919H350.05C350.281 16.919 350.518 16.8611 350.765 16.7401C351.012 16.6192 351.196 16.4719 351.317 16.2931C351.438 16.1143 351.496 15.9302 351.496 15.7514C351.496 15.4148 351.364 15.1571 351.096 14.9678C350.828 14.7785 350.439 14.6891 349.918 14.6891L346.531 14.7154V16.919Z" fill="#1E2958"/>
<path d="M364.233 13.3638V21.3209H362.855L357.654 15.4569V21.3209H356.302V13.3638H357.665L362.882 19.2856V13.3638H364.233Z" fill="#1E2958"/>
<path d="M371.581 21.5939C370.96 21.5939 370.387 21.494 369.861 21.2889C369.335 21.0838 368.883 20.7945 368.509 20.4211C368.136 20.0477 367.847 19.5955 367.641 19.0748C367.436 18.5541 367.336 17.9862 367.336 17.3708C367.336 16.7345 367.436 16.1455 367.636 15.609C367.836 15.0726 368.12 14.615 368.493 14.2416C368.867 13.8682 369.309 13.579 369.835 13.3739C370.355 13.1688 370.928 13.0688 371.549 13.0688C372.17 13.0688 372.743 13.1688 373.274 13.3739C373.8 13.579 374.252 13.8682 374.631 14.2416C375.01 14.615 375.299 15.0673 375.504 15.588C375.709 16.1086 375.809 16.6766 375.809 17.2919C375.809 17.9283 375.709 18.5173 375.509 19.0538C375.309 19.5902 375.025 20.0477 374.647 20.4211C374.273 20.7945 373.821 21.0838 373.3 21.2889C372.78 21.494 372.206 21.5939 371.581 21.5939ZM374.394 17.4234C374.394 16.5083 374.137 15.7668 373.616 15.2093C373.095 14.6519 372.406 14.3731 371.549 14.3731C371.134 14.3731 370.75 14.4362 370.403 14.573C370.05 14.7044 369.756 14.8938 369.508 15.1462C369.267 15.3987 369.077 15.7037 368.946 16.0613C368.814 16.4189 368.746 16.8186 368.746 17.2551C368.746 17.7022 368.814 18.1124 368.946 18.491C369.077 18.8697 369.267 19.1958 369.514 19.464C369.761 19.7375 370.061 19.9426 370.413 20.0846C370.765 20.2266 371.149 20.3002 371.575 20.3002C372.438 20.3002 373.121 20.0425 373.632 19.5218C374.136 19.0064 374.394 18.307 374.394 17.4234Z" fill="#1E2958"/>
<path d="M300.955 27.1318C301.529 27.1318 302.065 27.2212 302.559 27.4053C303.054 27.5894 303.48 27.8471 303.832 28.1784C304.184 28.5097 304.458 28.9094 304.653 29.3722C304.842 29.8403 304.942 30.3452 304.942 30.8869C304.942 31.4759 304.847 32.0334 304.658 32.5488C304.468 33.0694 304.2 33.5165 303.843 33.8951C303.485 34.2738 303.064 34.5683 302.57 34.7786C302.076 34.989 301.534 35.0942 300.945 35.0942H297.011V27.1476L300.955 27.1318ZM298.363 33.832H300.514C301.423 33.832 302.144 33.5638 302.675 33.0326C303.206 32.4962 303.469 31.802 303.469 30.9395C303.469 30.1664 303.206 29.5563 302.68 29.1145C302.154 28.6728 301.434 28.4519 300.529 28.4519L298.363 28.4624V33.832Z" fill="#1E2958"/>
<path d="M315.465 33.785V35.0998H308.023V27.1479H315.234V28.489H309.359V30.3297H314.24V31.6919H309.359V33.785H315.465Z" fill="#1E2958"/>
<path d="M329.449 30.0665C329.339 29.6931 329.144 29.3723 328.876 29.1041C328.603 28.8359 328.271 28.6255 327.877 28.4783C327.482 28.3257 327.078 28.2521 326.662 28.2521C326.247 28.2521 325.857 28.3152 325.495 28.4362C325.132 28.5624 324.816 28.7412 324.548 28.9779C324.28 29.2198 324.075 29.5143 323.927 29.8614C323.78 30.2138 323.706 30.6082 323.706 31.0447C323.706 31.2603 323.733 31.497 323.785 31.7547C323.838 32.0124 323.933 32.2701 324.075 32.5278C324.217 32.7855 324.406 33.0222 324.643 33.2378C324.884 33.4587 325.19 33.6322 325.568 33.769C325.947 33.9057 326.357 33.9741 326.794 33.9741C327.277 33.9741 327.714 33.8794 328.103 33.6953C328.492 33.506 328.797 33.2588 329.029 32.9538C329.26 32.6488 329.413 32.2964 329.481 31.8967L330.617 32.3858C330.543 33.0327 330.328 33.5744 329.97 34.0109C329.612 34.4474 329.144 34.784 328.566 35.0154C327.987 35.2468 327.335 35.3625 326.609 35.3625C325.994 35.3625 325.416 35.2573 324.874 35.0417C324.332 34.8261 323.864 34.521 323.475 34.1318C323.086 33.7427 322.781 33.2799 322.565 32.7487C322.35 32.2175 322.244 31.6495 322.244 31.0447C322.244 30.4136 322.355 29.8404 322.576 29.3197C322.797 28.7991 323.102 28.3625 323.496 28.0049C323.891 27.6473 324.364 27.3738 324.906 27.1845C325.452 26.9952 326.041 26.9058 326.683 26.9058C327.288 26.9058 327.83 26.9847 328.298 27.1372C328.766 27.2949 329.171 27.4948 329.502 27.7472C329.833 27.9997 330.091 28.2889 330.275 28.615C330.459 28.9411 330.585 29.2671 330.659 29.5932L329.449 30.0665Z" fill="#1E2958"/>
<path d="M337.254 35.3781C336.633 35.3781 336.06 35.2782 335.534 35.0731C335.008 34.868 334.556 34.5787 334.183 34.2053C333.809 33.8319 333.52 33.3796 333.315 32.859C333.11 32.3383 333.01 31.7703 333.01 31.155C333.01 30.5187 333.11 29.9296 333.31 29.3932C333.509 28.8568 333.793 28.3992 334.167 28.0258C334.54 27.6524 334.982 27.3632 335.508 27.1581C336.034 26.953 336.602 26.853 337.222 26.853C337.843 26.853 338.416 26.953 338.947 27.1581C339.473 27.3632 339.926 27.6524 340.304 28.0258C340.683 28.3992 340.972 28.8515 341.177 29.3722C341.382 29.8928 341.482 30.4608 341.482 31.0761C341.482 31.7125 341.382 32.3015 341.183 32.8379C340.983 33.3744 340.699 33.8319 340.32 34.2053C339.947 34.5787 339.494 34.868 338.974 35.0731C338.453 35.2782 337.88 35.3781 337.254 35.3781ZM340.068 31.2024C340.068 30.2873 339.81 29.5457 339.289 28.9882C338.769 28.4308 338.08 28.152 337.222 28.152C336.807 28.152 336.423 28.2204 336.076 28.3519C335.723 28.4834 335.429 28.6727 335.182 28.9251C334.94 29.1776 334.751 29.4826 334.619 29.8402C334.488 30.1979 334.419 30.5975 334.419 31.0341C334.419 31.4811 334.488 31.8913 334.619 32.27C334.751 32.6486 334.94 32.9747 335.187 33.2429C335.434 33.5164 335.734 33.7215 336.086 33.8635C336.439 34.0055 336.823 34.0791 337.249 34.0791C338.111 34.0791 338.795 33.8214 339.305 33.3008C339.81 32.7906 340.068 32.0859 340.068 31.2024Z" fill="#1E2958"/>
<path d="M345.59 29.3362C345.59 29.536 345.658 29.6991 345.795 29.82C345.932 29.941 346.142 30.0462 346.421 30.125C346.705 30.2039 347.278 30.2776 348.135 30.3459C348.998 30.4143 349.592 30.4827 349.918 30.5563C350.244 30.6299 350.512 30.7036 350.717 30.7772C350.923 30.8508 351.133 30.9613 351.338 31.098C351.543 31.24 351.717 31.4346 351.859 31.6818C352.001 31.9342 352.069 32.234 352.069 32.5863C352.069 32.9703 352.001 33.3174 351.859 33.6276C351.717 33.9379 351.527 34.2009 351.285 34.4165C351.044 34.6321 350.765 34.8057 350.46 34.9424C350.155 35.0792 349.802 35.1896 349.403 35.2738C349.003 35.3579 348.572 35.4 348.098 35.4C347.557 35.4 347.062 35.3579 346.61 35.279C346.158 35.2001 345.742 35.0634 345.353 34.8741C344.964 34.6847 344.659 34.427 344.428 34.101C344.196 33.7802 344.038 33.4278 343.959 33.0544L345.153 32.4812C345.353 33.0071 345.679 33.391 346.142 33.6276C346.6 33.8643 347.204 33.9853 347.956 33.9853C348.509 33.9853 348.987 33.9274 349.392 33.817C349.797 33.7065 350.102 33.554 350.297 33.3647C350.491 33.1754 350.591 32.9492 350.591 32.6968C350.591 32.5127 350.533 32.3497 350.412 32.2129C350.292 32.0709 350.076 31.9552 349.766 31.8658C349.455 31.7764 348.877 31.7028 348.025 31.6502C347.173 31.5976 346.542 31.5345 346.116 31.4661C345.69 31.3978 345.327 31.2821 345.017 31.1243C344.706 30.9665 344.459 30.7561 344.28 30.4827C344.101 30.2092 344.012 29.8726 344.012 29.4677C344.012 29.1416 344.08 28.8366 344.222 28.5578C344.364 28.2791 344.554 28.0372 344.79 27.8426C345.027 27.6427 345.306 27.4744 345.616 27.3377C345.926 27.201 346.284 27.0905 346.689 27.0011C347.094 26.9117 347.52 26.8696 347.977 26.8696C348.44 26.8696 348.893 26.9117 349.329 26.9959C349.766 27.08 350.171 27.2167 350.533 27.4008C350.896 27.5901 351.201 27.8373 351.443 28.1476C351.685 28.4579 351.838 28.826 351.906 29.2468L350.781 29.6885C350.686 29.3362 350.502 29.0469 350.234 28.8103C349.965 28.5736 349.634 28.4 349.24 28.2843C348.845 28.1686 348.419 28.1108 347.967 28.1108C347.546 28.1108 347.125 28.1739 346.715 28.3001C346.305 28.4263 346.016 28.5841 345.848 28.7734C345.674 28.968 345.59 29.1521 345.59 29.3362Z" fill="#1E2958"/>
<path d="M362.461 27.1483V28.4894H358.922V35.1054H357.57V28.4841H354.041V27.1431H362.461V27.1483Z" fill="#1E2958"/>
<path d="M371.128 35.1002L370.029 32.8282H365.732L364.633 35.1002H363.124L367.01 27.1431H368.746L372.632 35.1002H371.128ZM367.768 28.6156L366.369 31.5082H369.393L367.994 28.6156H367.768Z" fill="#1E2958"/>
<path d="M386.49 35.3259C386.18 35.3259 385.917 35.2365 385.701 35.0525C385.486 34.8684 385.307 34.6317 385.154 34.3372C385.007 34.0427 384.833 33.6167 384.639 33.0645C384.444 32.5123 384.297 32.1178 384.202 31.8864H381.068V35.1051H379.716V27.1479H384.681C385.149 27.1479 385.575 27.2058 385.954 27.3162C386.332 27.4267 386.653 27.5845 386.911 27.7896C387.169 27.9947 387.368 28.2366 387.505 28.5258C387.642 28.8151 387.71 29.1306 387.71 29.4725C387.71 30.0615 387.521 30.5611 387.142 30.9608C386.764 31.3658 386.28 31.6077 385.691 31.6971C385.864 32.3282 386.012 32.7858 386.122 33.075C386.232 33.3643 386.364 33.5799 386.506 33.7324C386.648 33.8849 386.827 33.9586 387.032 33.9586C387.237 33.9586 387.463 33.9007 387.7 33.7903V35.1051C387.242 35.2523 386.842 35.3259 386.49 35.3259ZM381.073 30.6979H384.592C384.823 30.6979 385.06 30.64 385.307 30.5191C385.554 30.3981 385.738 30.2508 385.859 30.072C385.98 29.8932 386.038 29.7092 386.038 29.5303C386.038 29.1938 385.906 28.9361 385.638 28.7467C385.37 28.5574 384.981 28.468 384.46 28.468L381.073 28.4943V30.6979Z" fill="#1E2958"/>
<path d="M392.191 35.0998H390.839V27.1479H392.191V35.0998Z" fill="#1E2958"/>
<path d="M402.462 30.0665C402.352 29.6931 402.157 29.3723 401.889 29.1041C401.616 28.8359 401.284 28.6255 400.89 28.4783C400.495 28.3257 400.091 28.2521 399.675 28.2521C399.26 28.2521 398.87 28.3152 398.508 28.4362C398.145 28.5624 397.829 28.7412 397.561 28.9779C397.293 29.2198 397.088 29.5143 396.94 29.8614C396.793 30.2138 396.719 30.6082 396.719 31.0447C396.719 31.2603 396.746 31.497 396.798 31.7547C396.851 32.0124 396.946 32.2701 397.088 32.5278C397.23 32.7855 397.419 33.0222 397.655 33.2378C397.897 33.4587 398.202 33.6322 398.581 33.769C398.96 33.9057 399.37 33.9741 399.807 33.9741C400.29 33.9741 400.727 33.8794 401.116 33.6953C401.505 33.506 401.81 33.2588 402.042 32.9538C402.273 32.6488 402.426 32.2964 402.494 31.8967L403.63 32.3858C403.556 33.0327 403.341 33.5744 402.983 34.0109C402.625 34.4474 402.157 34.784 401.579 35.0154C401 35.2468 400.348 35.3625 399.622 35.3625C399.007 35.3625 398.429 35.2573 397.887 35.0417C397.345 34.8261 396.877 34.521 396.488 34.1318C396.099 33.7427 395.794 33.2799 395.578 32.7487C395.363 32.2175 395.257 31.6495 395.257 31.0447C395.257 30.4136 395.368 29.8404 395.589 29.3197C395.81 28.7991 396.115 28.3625 396.509 28.0049C396.903 27.6473 397.377 27.3738 397.918 27.1845C398.465 26.9952 399.054 26.9058 399.696 26.9058C400.301 26.9058 400.843 26.9847 401.311 27.1372C401.779 27.2949 402.184 27.4948 402.515 27.7472C402.846 27.9997 403.104 28.2889 403.288 28.615C403.472 28.9411 403.598 29.2671 403.672 29.5932L402.462 30.0665Z" fill="#1E2958"/>
<path d="M413.496 35.1002L412.397 32.8282H408.1L407.001 35.1002H405.491L409.378 27.1431H411.113L415 35.1002H413.496ZM410.135 28.6156L408.736 31.5082H411.76L410.361 28.6156H410.135Z" fill="#1E2958"/>
<path d="M70.5357 12.0903L73.3073 17.9333L76.063 12.0903H78.6768V21.5936H76.6205V15.7034L73.7648 21.6041H72.8339L69.9782 15.7034V21.5936H67.9219V12.0903H70.5357Z" fill="#1E2958"/>
<path d="M84.851 21.5936H82.7947V12.0903H84.851V21.5936Z" fill="#1E2958"/>
<path d="M98.4566 12.0903V21.5936H96.4003L91.0412 15.2774V21.5936H88.9849V12.0903H91.057L96.4003 18.4539V12.0903H98.4566Z" fill="#1E2958"/>
<path d="M104.647 21.5936H102.59V12.0903H104.647V21.5936Z" fill="#1E2958"/>
<path d="M110.547 14.6773C110.547 14.8508 110.616 15.0034 110.747 15.1506C110.879 15.2926 111.105 15.4083 111.42 15.4925C111.736 15.5766 112.362 15.666 113.298 15.7502C114.234 15.8343 114.912 15.929 115.333 16.0289C115.754 16.1288 116.101 16.2445 116.375 16.3707C116.653 16.497 116.895 16.66 117.106 16.8546C117.316 17.0492 117.479 17.2911 117.589 17.5751C117.7 17.8591 117.763 18.1851 117.763 18.548C117.763 19.0161 117.679 19.4368 117.511 19.8102C117.342 20.1889 117.116 20.5044 116.832 20.7674C116.548 21.0303 116.217 21.246 115.849 21.409C115.475 21.5773 115.054 21.7088 114.576 21.8034C114.097 21.8981 113.582 21.9454 113.019 21.9454C112.257 21.9454 111.604 21.8928 111.063 21.7877C110.521 21.6825 110.048 21.5142 109.648 21.288C109.248 21.0619 108.912 20.7674 108.638 20.415C108.365 20.0627 108.176 19.6472 108.06 19.1739L109.906 18.1904C110.174 18.7163 110.521 19.1108 110.958 19.3842C111.389 19.6577 112.004 19.7892 112.793 19.7892C114.592 19.7892 115.496 19.4316 115.496 18.7163C115.496 18.5375 115.433 18.3797 115.312 18.2535C115.186 18.1273 114.976 18.0168 114.676 17.9327C114.376 17.8486 113.803 17.7802 112.961 17.7276C112.12 17.675 111.515 17.6224 111.147 17.5698C110.779 17.5172 110.484 17.4594 110.263 17.391C110.037 17.3226 109.827 17.249 109.627 17.1701C109.427 17.0912 109.206 16.9598 108.97 16.7862C108.733 16.6127 108.533 16.3602 108.375 16.0341C108.218 15.7081 108.139 15.3242 108.139 14.8771C108.139 14.6405 108.186 14.3723 108.275 14.083C108.365 13.7937 108.528 13.515 108.759 13.2468C108.991 12.9786 109.306 12.7314 109.701 12.4947C110.095 12.2633 110.579 12.0793 111.152 11.9425C111.725 11.811 112.304 11.7427 112.898 11.7427C113.461 11.7427 114.008 11.8005 114.539 11.9215C115.07 12.0424 115.554 12.2213 115.991 12.4579C116.422 12.6946 116.779 12.9996 117.053 13.3678C117.332 13.7359 117.489 14.1461 117.537 14.6037L115.849 15.2611C115.743 14.9087 115.554 14.6089 115.286 14.367C115.012 14.1251 114.676 13.9357 114.266 13.7937C113.855 13.657 113.408 13.5886 112.925 13.5886C112.304 13.5886 111.757 13.6938 111.273 13.9042C110.789 14.1146 110.547 14.3723 110.547 14.6773Z" fill="#1E2958"/>
<path d="M130.054 12.0903V14.1204H126.051V21.5936H123.995V14.1204H119.993V12.0903H130.054Z" fill="#1E2958"/>
<path d="M142.071 19.5794V21.5936H133.041V12.0903H141.813V14.1204H135.097V15.6508H140.614V17.7387H135.097V19.5846H142.071V19.5794Z" fill="#1E2958"/>
<path d="M150.875 17.7809H147.488V21.599H145.431V12.0905L151.632 12.0747C152.689 12.0747 153.541 12.3377 154.188 12.8688C154.835 13.4 155.161 14.0784 155.161 14.9041C155.161 15.572 154.982 16.1348 154.619 16.5976C154.256 17.0604 153.762 17.3549 153.131 17.4759L153.646 19.1483C153.704 19.3586 153.804 19.5112 153.951 19.6111C154.098 19.711 154.262 19.7636 154.446 19.7636C154.693 19.7636 154.914 19.7005 155.103 19.5795V21.5938C154.514 21.7831 154.014 21.8778 153.604 21.8778C153.062 21.8778 152.615 21.7305 152.268 21.4413C151.921 21.152 151.674 20.7365 151.532 20.2054L150.875 17.7809ZM147.488 15.977H151.306C151.716 15.977 152.032 15.8876 152.258 15.7035C152.484 15.5247 152.594 15.2881 152.594 15.0041C152.594 14.7253 152.489 14.5097 152.274 14.3519C152.058 14.1941 151.758 14.1153 151.364 14.1153L147.493 14.1416V15.977H147.488Z" fill="#1E2958"/>
<path d="M160.778 21.5936H158.721V12.0903H160.778V21.5936Z" fill="#1E2958"/>
<path d="M169.297 21.9248C168.556 21.9248 167.867 21.8038 167.241 21.5619C166.615 21.32 166.074 20.9729 165.626 20.5258C165.179 20.0788 164.832 19.5424 164.59 18.9165C164.349 18.2907 164.228 17.6123 164.228 16.8812C164.228 16.1187 164.348 15.4139 164.585 14.7723C164.822 14.1307 165.164 13.5838 165.605 13.1367C166.047 12.6897 166.584 12.3426 167.204 12.1007C167.83 11.8588 168.514 11.7378 169.255 11.7378C169.997 11.7378 170.686 11.8588 171.312 12.1007C171.943 12.3426 172.479 12.6897 172.931 13.1367C173.384 13.5838 173.731 14.1202 173.973 14.746C174.215 15.3719 174.336 16.0503 174.336 16.7813C174.336 17.5439 174.215 18.2486 173.978 18.8902C173.741 19.5319 173.394 20.0788 172.947 20.5258C172.5 20.9729 171.964 21.32 171.338 21.5619C170.723 21.8038 170.039 21.9248 169.297 21.9248ZM172.185 16.9812C172.185 15.9925 171.922 15.1983 171.391 14.604C170.859 14.0097 170.149 13.71 169.255 13.71C168.372 13.71 167.667 13.9729 167.157 14.5041C166.641 15.0353 166.384 15.761 166.384 16.6814C166.384 17.6806 166.642 18.4748 167.162 19.0691C167.683 19.6581 168.388 19.9526 169.287 19.9526C170.17 19.9526 170.88 19.6896 171.401 19.1585C171.922 18.6273 172.185 17.9015 172.185 16.9812Z" fill="#1E2958"/>
<path d="M187.889 12.0903C188.572 12.0903 189.214 12.1955 189.803 12.4111C190.392 12.6268 190.902 12.9318 191.323 13.3315C191.749 13.7312 192.075 14.2098 192.301 14.762C192.527 15.3142 192.643 15.9137 192.643 16.5606C192.643 17.2653 192.533 17.928 192.306 18.5486C192.08 19.1692 191.759 19.7056 191.333 20.1579C190.907 20.6102 190.403 20.9625 189.814 21.215C189.225 21.4674 188.572 21.5936 187.868 21.5936H183.166V12.0903H187.889ZM185.228 19.6793H187.2C187.694 19.6793 188.141 19.6057 188.541 19.4584C188.941 19.3112 189.277 19.106 189.556 18.8378C189.835 18.5696 190.04 18.2488 190.187 17.8754C190.329 17.4967 190.403 17.0865 190.403 16.6395C190.403 15.8191 190.124 15.1932 189.566 14.762C189.009 14.3307 188.225 14.1098 187.216 14.1098H185.228V19.6793Z" fill="#1E2958"/>
<path d="M205.091 19.5794V21.5936H196.061V12.0903H204.834V14.1204H198.118V15.6508H203.634V17.7387H198.118V19.5846H205.091V19.5794Z" fill="#1E2958"/>
<path d="M76.9623 36.9241V38.9384H67.9324V29.4351H76.7046V31.4651H69.9887V32.9955H75.5056V35.0834H69.9887V36.9294H76.9623V36.9241Z" fill="#1E2958"/>
<path d="M85.0511 29.4351C85.7348 29.4351 86.3764 29.5402 86.9654 29.7559C87.5544 29.9715 88.0646 30.2765 88.4853 30.6762C88.9113 31.0759 89.2374 31.5545 89.4635 32.1067C89.6897 32.6589 89.8054 33.2585 89.8054 33.9053C89.8054 34.6101 89.6949 35.2727 89.4688 35.8933C89.2426 36.5139 88.9218 37.0503 88.4958 37.5026C88.0698 37.9549 87.565 38.3073 86.9759 38.5597C86.3869 38.8121 85.7348 38.9384 85.0301 38.9384H80.3284V29.4351H85.0511ZM82.3952 37.024H84.3674C84.8618 37.024 85.3088 36.9504 85.7085 36.8031C86.1082 36.6559 86.4448 36.4508 86.7235 36.1826C87.0022 35.9143 87.2074 35.5935 87.3546 35.2201C87.4966 34.8415 87.5702 34.4313 87.5702 33.9842C87.5702 33.1638 87.2915 32.538 86.734 32.1067C86.1765 31.6755 85.3929 31.4546 84.3832 31.4546H82.3952V37.024Z" fill="#1E2958"/>
<path d="M97.5992 39.2802C96.8945 39.2802 96.2529 39.1855 95.6796 39.0015C95.1011 38.8174 94.6173 38.5492 94.2123 38.2073C93.8074 37.8655 93.5076 37.4553 93.2972 36.9767C93.0869 36.4981 92.9817 35.9827 92.9817 35.42V29.4351H95.038V34.9204C95.038 35.6829 95.2431 36.2509 95.6533 36.6296C96.0636 37.0082 96.7104 37.1923 97.5992 37.1923C98.488 37.1923 99.1349 37.003 99.5451 36.6296C99.9553 36.2509 100.16 35.6829 100.16 34.9204V29.4351H102.217V35.4252C102.217 35.988 102.112 36.5086 101.901 36.9819C101.691 37.4605 101.386 37.8655 100.986 38.2126C100.586 38.5544 100.097 38.8174 99.5188 39.0067C98.9456 39.1908 98.304 39.2802 97.5992 39.2802Z" fill="#1E2958"/>
<path d="M113.55 33.08C113.445 32.7486 113.261 32.4331 112.993 32.1386C112.725 31.8441 112.372 31.6074 111.936 31.4391C111.499 31.2655 111.063 31.1814 110.637 31.1814C110.227 31.1814 109.837 31.2445 109.464 31.3655C109.091 31.4917 108.764 31.6758 108.486 31.9229C108.207 32.1701 107.986 32.4804 107.828 32.8538C107.671 33.2272 107.592 33.6374 107.592 34.095C107.592 34.4473 107.644 34.805 107.755 35.1678C107.865 35.5307 108.055 35.8568 108.317 36.146C108.586 36.4353 108.928 36.6772 109.354 36.8613C109.78 37.0454 110.279 37.14 110.863 37.14C111.121 37.14 111.389 37.1032 111.673 37.0348C111.952 36.9612 112.23 36.8403 112.493 36.6614C112.761 36.4879 112.998 36.2512 113.214 35.962C113.429 35.6727 113.577 35.3256 113.666 34.9259L115.365 35.699C115.296 36.3196 115.118 36.8613 114.823 37.3294C114.529 37.7974 114.155 38.1708 113.703 38.4496C113.251 38.7283 112.756 38.9334 112.214 39.0649C111.678 39.1911 111.131 39.2595 110.579 39.2595C109.843 39.2595 109.154 39.1332 108.507 38.8755C107.86 38.6178 107.302 38.255 106.834 37.7869C106.366 37.3188 106.003 36.7719 105.746 36.1355C105.488 35.5044 105.362 34.8207 105.362 34.1002C105.362 33.3745 105.488 32.7066 105.74 32.0912C105.993 31.4759 106.356 30.95 106.829 30.5135C107.302 30.077 107.865 29.7404 108.523 29.5037C109.18 29.2723 109.9 29.1514 110.679 29.1514C111.136 29.1514 111.61 29.1987 112.099 29.2934C112.588 29.388 113.056 29.5563 113.492 29.7982C113.929 30.0402 114.323 30.3715 114.671 30.7922C115.018 31.213 115.27 31.7336 115.423 32.3647L113.55 33.08Z" fill="#1E2958"/>
<path d="M126.882 38.9384L125.794 36.6506H120.819L119.746 38.9384H117.4L122.028 29.4351H124.584L129.212 38.9384H126.882ZM123.138 31.7806L121.781 34.6521H124.852L123.496 31.7806H123.138Z" fill="#1E2958"/>
<path d="M139.115 33.08C139.01 32.7486 138.826 32.4331 138.558 32.1386C138.289 31.8441 137.937 31.6074 137.5 31.4391C137.064 31.2655 136.627 31.1814 136.201 31.1814C135.791 31.1814 135.402 31.2445 135.029 31.3655C134.655 31.4917 134.329 31.6758 134.05 31.9229C133.772 32.1701 133.551 32.4804 133.393 32.8538C133.235 33.2272 133.156 33.6374 133.156 34.095C133.156 34.4473 133.209 34.805 133.319 35.1678C133.43 35.5307 133.619 35.8568 133.882 36.146C134.15 36.4353 134.492 36.6772 134.918 36.8613C135.344 37.0454 135.844 37.14 136.428 37.14C136.685 37.14 136.954 37.1032 137.238 37.0348C137.516 36.9612 137.795 36.8403 138.058 36.6614C138.326 36.4879 138.563 36.2512 138.778 35.962C138.994 35.6727 139.141 35.3256 139.231 34.9259L140.929 35.699C140.861 36.3196 140.682 36.8613 140.388 37.3294C140.093 37.7974 139.72 38.1708 139.268 38.4496C138.815 38.7283 138.321 38.9334 137.779 39.0649C137.243 39.1911 136.696 39.2595 136.144 39.2595C135.407 39.2595 134.718 39.1332 134.071 38.8755C133.425 38.6178 132.867 38.255 132.399 37.7869C131.931 37.3188 131.568 36.7719 131.31 36.1355C131.053 35.5044 130.927 34.8207 130.927 34.1002C130.927 33.3745 131.053 32.7066 131.305 32.0912C131.558 31.4759 131.92 30.95 132.394 30.5135C132.867 30.077 133.43 29.7404 134.087 29.5037C134.745 29.2723 135.465 29.1514 136.244 29.1514C136.701 29.1514 137.174 29.1987 137.663 29.2934C138.153 29.388 138.621 29.5563 139.057 29.7982C139.494 30.0402 139.888 30.3715 140.235 30.7922C140.582 31.213 140.835 31.7336 140.987 32.3647L139.115 33.08Z" fill="#1E2958"/>
<path d="M146.289 38.9384H144.232V29.4351H146.289V38.9384Z" fill="#1E2958"/>
<path d="M152.747 38.901C152.116 38.6591 151.579 38.312 151.132 37.8649C150.685 37.4179 150.338 36.8815 150.096 36.2556C149.854 35.6298 149.733 34.9514 149.733 34.2203C149.733 33.4578 149.854 32.753 150.091 32.1114C150.328 31.4698 150.67 30.9229 151.111 30.4758C151.553 30.0288 152.09 29.6817 152.71 29.4398C153.336 29.1979 154.02 29.0769 154.761 29.0769C155.503 29.0769 156.192 29.1979 156.817 29.4398C157.449 29.6817 157.985 30.0288 158.437 30.4758C158.89 30.9229 159.237 31.4593 159.479 32.0851C159.721 32.711 159.841 33.3894 159.841 34.1204C159.841 34.883 159.721 35.5877 159.484 36.2293C159.247 36.871 158.9 37.4179 158.453 37.8649C158.006 38.312 157.47 38.6591 156.844 38.901C156.218 39.1429 155.534 39.2639 154.793 39.2639C154.051 39.2639 153.378 39.1429 152.747 38.901ZM156.896 31.9431C156.365 31.3488 155.655 31.0491 154.761 31.0491C153.878 31.0491 153.173 31.312 152.663 31.8432C152.147 32.3744 151.89 33.1001 151.89 34.0205C151.89 35.0197 152.147 35.8139 152.668 36.4082C153.189 36.9972 153.893 37.2917 154.793 37.2917C155.676 37.2917 156.386 37.0287 156.907 36.4976C157.433 35.9664 157.691 35.2406 157.691 34.3203C157.691 33.3316 157.428 32.5374 156.896 31.9431ZM153.988 28.5036H155.203L156.718 26.1055H154.272L153.988 28.5036Z" fill="#1E2958"/>
<path d="M172.768 29.4351V38.9384H170.712L165.353 32.6221V38.9384H163.297V29.4351H165.369L170.712 35.7934V29.4351H172.768Z" fill="#1E2958"/>
<path d="M184.344 35.7357V38.9385H182.287V29.4352L188.004 29.4194C188.651 29.4194 189.224 29.4983 189.719 29.6456C190.213 29.7981 190.623 30.0085 190.939 30.2819C191.259 30.5554 191.496 30.8762 191.649 31.2444C191.801 31.6178 191.875 32.0227 191.875 32.4592C191.875 32.8011 191.796 33.164 191.649 33.5479C191.496 33.9265 191.275 34.2842 190.986 34.605C190.697 34.931 190.339 35.194 189.913 35.3991C189.487 35.6042 189.03 35.7041 188.535 35.7041L184.344 35.7357ZM188.13 31.4337L184.344 31.4915V33.6057H188.115C188.314 33.6057 188.519 33.5689 188.735 33.49C188.951 33.4164 189.119 33.2849 189.25 33.0956C189.377 32.9115 189.445 32.7064 189.445 32.4908C189.445 32.2804 189.382 32.0858 189.25 31.9123C189.124 31.7387 188.951 31.6125 188.746 31.5389C188.535 31.4705 188.33 31.4337 188.13 31.4337Z" fill="#1E2958"/>
<path d="M197.513 39.0009C196.934 38.8168 196.451 38.5486 196.046 38.2068C195.641 37.8649 195.341 37.4547 195.13 36.9761C194.92 36.4976 194.815 35.9822 194.815 35.4194V29.4345H196.871V34.9198C196.871 35.6824 197.076 36.2504 197.487 36.629C197.897 37.0077 198.544 37.1918 199.432 37.1918C200.321 37.1918 200.968 37.0024 201.378 36.629C201.789 36.2504 201.994 35.6824 201.994 34.9198V29.4345H204.05V35.4247C204.05 35.9874 203.945 36.5081 203.734 36.9814C203.524 37.46 203.219 37.8649 202.819 38.212C202.42 38.5539 201.931 38.8168 201.352 39.0062C200.774 39.1902 200.137 39.2849 199.432 39.2849C198.728 39.2797 198.086 39.1902 197.513 39.0009ZM198.607 28.5036H199.822L201.336 26.1055H198.891L198.607 28.5036Z" fill="#1E2958"/>
<path d="M207.921 29.4345L213.154 29.4082C214.458 29.4082 215.425 29.6291 216.057 30.0709C216.688 30.5126 216.998 31.2016 216.998 32.1377C216.998 32.3744 216.945 32.6215 216.845 32.8792C216.746 33.1369 216.54 33.4578 216.241 33.8364C216.861 34.457 217.172 35.0828 217.172 35.7245C217.172 36.3608 217.035 36.9235 216.756 37.4021C216.477 37.886 216.036 38.2646 215.42 38.5381C214.805 38.8168 214.021 38.9536 213.069 38.9536L207.926 38.9378V29.4345H207.921ZM209.982 33.1369H213.585C213.911 33.1369 214.169 33.0475 214.363 32.874C214.558 32.7004 214.658 32.4901 214.658 32.2534C214.658 32.0325 214.568 31.8432 214.384 31.6802C214.205 31.5171 213.948 31.4382 213.611 31.4382L209.982 31.4961V33.1369ZM209.982 35.0776V36.9761L213.185 37.0182C213.527 37.0182 213.827 36.9814 214.079 36.9025C214.332 36.8289 214.531 36.7079 214.673 36.5449C214.815 36.3818 214.889 36.1662 214.889 35.9033C214.889 35.635 214.763 35.4299 214.505 35.2879C214.247 35.1459 213.806 35.0723 213.175 35.0723H209.982V35.0776Z" fill="#1E2958"/>
<path d="M229.215 36.9241V38.9384H220.753V29.4351H222.809V36.9241H229.215Z" fill="#1E2958"/>
<path d="M234.29 38.9384H232.234V29.4351H234.29V38.9384Z" fill="#1E2958"/>
<path d="M245.865 33.08C245.76 32.7486 245.576 32.4331 245.308 32.1386C245.04 31.8441 244.687 31.6074 244.251 31.4391C243.814 31.2655 243.378 31.1814 242.952 31.1814C242.541 31.1814 242.152 31.2445 241.779 31.3655C241.405 31.4917 241.079 31.6758 240.801 31.9229C240.522 32.1701 240.301 32.4804 240.143 32.8538C239.985 33.2272 239.907 33.6374 239.907 34.095C239.907 34.4473 239.959 34.805 240.07 35.1678C240.18 35.5307 240.369 35.8568 240.632 36.146C240.901 36.4353 241.242 36.6772 241.668 36.8613C242.094 37.0454 242.594 37.14 243.178 37.14C243.436 37.14 243.704 37.1032 243.988 37.0348C244.266 36.9612 244.545 36.8403 244.808 36.6614C245.076 36.4879 245.313 36.2512 245.529 35.962C245.744 35.6727 245.892 35.3256 245.981 34.9259L247.68 35.699C247.611 36.3196 247.432 36.8613 247.138 37.3294C246.843 37.7974 246.47 38.1708 246.018 38.4496C245.565 38.7283 245.071 38.9334 244.529 39.0649C243.993 39.1911 243.446 39.2595 242.894 39.2595C242.158 39.2595 241.469 39.1332 240.822 38.8755C240.175 38.6178 239.617 38.255 239.149 37.7869C238.681 37.3188 238.318 36.7719 238.061 36.1355C237.803 35.5044 237.677 34.8207 237.677 34.1002C237.677 33.3745 237.803 32.7066 238.055 32.0912C238.308 31.4759 238.671 30.95 239.144 30.5135C239.617 30.077 240.18 29.7404 240.837 29.5037C241.495 29.2723 242.215 29.1514 242.994 29.1514C243.451 29.1514 243.925 29.1987 244.414 29.2934C244.903 29.388 245.371 29.5563 245.807 29.7982C246.244 30.0402 246.638 30.3715 246.985 30.7922C247.333 31.213 247.585 31.7336 247.737 32.3647L245.865 33.08Z" fill="#1E2958"/>
<path d="M259.197 38.9384L258.109 36.6506H253.134L252.061 38.9384H249.715L254.343 29.4351H256.899L261.527 38.9384H259.197ZM255.453 31.7806L254.096 34.6521H257.167L255.81 31.7806H255.453Z" fill="#1E2958"/>
</svg>
